<?xml version="1.0" encoding="UTF-8"?>
<svg id="_レイヤー_1" data-name=" レイヤー 1" xmlns="http://www.w3.org/2000/svg" viewBox="0 0 184.25 35.97">
  <defs>
    <style>
      .cls-1 {
        fill: #9fa0a0;
      }

      .cls-2 {
        fill: #fffde5;
      }

      .cls-3 {
        fill: #231815;
      }

      .cls-4 {
        fill: #e9c912;
      }
    </style>
  </defs>
  <g>
    <g>
      <path class="cls-2" d="M9.11,15.7h2.66v-7.24h-2.66c-5,0-9.07,4.04-9.11,9.01h7.27v.03c.01-.99.83-1.8,1.83-1.8h.01Z"/>
      <path class="cls-1" d="M0,17.47h0v.06c.03,4.97,4.11,9.01,9.1,9.01h2.66v-7.24h-2.66c-1,0-1.81-.8-1.83-1.8v-.03H0Z"/>
    </g>
    <path class="cls-4" d="M22.31,34.99h-10.54v-8.45h10.54c4.47,0,8.1-4.05,8.1-9.04h8.45c0,4.61-1.68,8.97-4.74,12.26-3.14,3.38-7.33,5.23-11.81,5.23h0Z"/>
    <path class="cls-3" d="M38.86,17.5h-8.45c0-4.99-3.63-9.04-8.1-9.04h-10.54V0h10.54c4.48,0,8.67,1.86,11.81,5.23,3.06,3.29,4.74,7.64,4.74,12.26h0Z"/>
  </g>
  <g>
    <g>
      <path class="cls-3" d="M49.54,20.44c-1.53,0-2.06.04-2.17.04-.15,0-.18-.01-.18-.19v-1.33c0-.18.01-.19.18-.19.1,0,.64.04,2.17.04h1.64v-3.38h-.6c-1.64,0-2.22.04-2.32.04-.18,0-.19-.01-.19-.21v-1.33c0-.15.01-.18.19-.18.1,0,.68.04,2.32.04h.6v-.88c0-1-.01-1.68-.12-2.46.66.01,1.27.04,1.87.1.18.01.26.1.26.19,0,.15-.07.29-.12.45s-.07.57-.07,1.72v.88h3.66v-.88c0-1-.01-1.68-.13-2.46.66.01,1.25.04,1.87.1.18.01.26.1.26.19,0,.15-.07.29-.13.45s-.07.57-.07,1.72v.88h.85c1.64,0,2.22-.04,2.32-.04.18,0,.19.01.19.18v1.33c0,.19-.01.21-.19.21-.1,0-.68-.04-2.32-.04h-.85v3.38h1.86c1.53,0,2.05-.04,2.15-.04.18,0,.19.01.19.19v1.33c0,.18-.01.19-.19.19-.1,0-.63-.04-2.15-.04h-10.8,0ZM53.36,21.73c.15.09.23.15.23.26,0,.14-.1.23-.26.31-.14.09-.31.24-.52.46-.99,1.16-2.32,2.12-3.87,2.93-.19.09-.31.14-.4.14-.14,0-.21-.1-.4-.38-.26-.41-.63-.82-.92-1.04,1.78-.71,3.19-1.7,3.94-2.46.38-.4.55-.66.71-.99.52.23,1.08.5,1.49.77h0ZM56.67,18.79v-3.38h-3.66v3.38h3.66ZM57.45,21.11c.15-.1.21-.1.35.04,1.19,1.32,2.62,2.4,4.72,3.19-.28.26-.63.68-.88,1.11-.18.29-.24.41-.38.41-.09,0-.19-.05-.38-.14-1.94-1-3.36-2.15-4.58-3.68-.12-.18-.09-.21.13-.33l1.04-.6h0Z"/>
      <path class="cls-3" d="M68.91,20.42c-.1.68-.23,1.32-.38,1.89-.26.97-.71,1.91-1.19,2.74-.13.21-.21.31-.29.31s-.18-.1-.35-.31c-.33-.41-.66-.73-1-.95.73-1.02,1.14-1.96,1.4-3,.24-.9.38-2.08.38-3.55,0-1.27-.01-1.75-.01-1.94s.01-.19.18-.19c.1,0,.59.04,2,.04h2.81c1.41,0,1.89-.04,1.98-.04.18,0,.19.01.19.19,0,.1-.04.45-.04,1.41v1.87c0,.92.04,1.28.04,1.39,0,.18-.01.19-.19.19-.09,0-.57-.04-1.98-.04h-3.53ZM69.24,13.9c-.71.63-1.46,1.18-2.2,1.59-.19.1-.31.18-.4.18-.13,0-.18-.14-.29-.4-.21-.5-.41-.82-.64-1.09,1.81-.83,3.15-1.98,4.05-3.23.23-.31.38-.57.5-.9.57.09,1.04.18,1.59.29.14.04.23.09.23.23,0,.09-.05.15-.18.23,1.16,1.3,2.17,1.87,3.77,2.56-.24.33-.43.71-.57,1.11-.1.29-.15.41-.26.41-.09,0-.19-.05-.38-.15-.52-.28-1-.59-1.46-.94v.83c0,.18-.01.19-.19.19-.1,0-.31-.04-1.18-.04h-1c-.85,0-1.08.04-1.18.04-.19,0-.21-.01-.21-.19v-.73h0ZM74.91,23.66c0,1.51.04,1.92.04,2.03,0,.15-.01.18-.19.18h-1.3c-.18,0-.19-.01-.19-.18v-.4h-2.81v.52c0,.18-.01.19-.19.19h-1.25c-.18,0-.19-.01-.19-.19,0-.1.04-.5.04-2.05v-.99c0-.8-.04-1.16-.04-1.28,0-.18.01-.19.19-.19.12,0,.52.04,1.82.04h2.1c1.28,0,1.7-.04,1.82-.04.18,0,.19.01.19.19,0,.12-.04.47-.04,1.08v1.09h0ZM72.95,18.49h-3.85l-.05.69h3.9v-.69ZM69.12,16.66v.68h3.83v-.68h-3.83ZM71.63,13.5c.54,0,.82,0,.97-.01-.55-.45-1.05-.97-1.54-1.58-.41.55-.87,1.09-1.37,1.58.18.01.45.01.94.01h1ZM70.45,22.6v1.42h2.81v-1.42s-2.81,0-2.81,0ZM76.05,14.21c0-1.14,0-1.75-.13-2.56.63.01,1.16.05,1.77.12.15.01.23.09.23.19,0,.12-.07.26-.1.38-.05.24-.05.59-.05,1.86v4.78c0,1.47.01,2.18.01,2.28,0,.19-.01.21-.18.21h-1.42c-.15,0-.18-.01-.18-.21,0-.1.04-.82.04-2.28v-4.77h0ZM81.06,20.16c0,1.22.04,2.59.04,3.45s-.12,1.35-.63,1.7c-.49.31-.99.43-2.62.43-.52,0-.52-.01-.64-.55-.13-.5-.31-.99-.55-1.32.69.07,1.18.09,1.87.09.55,0,.76-.14.76-.69v-10.4c0-1.13-.01-1.67-.14-2.48.64.01,1.23.05,1.84.12.18.01.26.1.26.19,0,.15-.05.26-.09.38-.1.21-.1.57-.1,1.75v7.33h0Z"/>
      <path class="cls-3" d="M93.13,17.66c-.1,1.94-.35,3.1-1.02,4.42-.69,1.35-1.94,2.62-3.05,3.28-.19.12-.36.21-.52.21-.12,0-.24-.05-.36-.18-.35-.35-.94-.69-1.54-.92,1.7-.92,2.72-1.77,3.45-3.09.64-1.14.82-2.08.88-3.73h-3.29c-.87,0-1.72.05-2.6.1-.15.01-.21-.1-.23-.33-.09-.49-.14-1.14-.14-1.67.97.09,1.94.09,2.95.09h7.78c1.35,0,2.36-.04,3.38-.1.18,0,.19.1.19.35.01.23.01,1.11,0,1.33,0,.23-.1.29-.26.29-.9-.04-2.1-.07-3.29-.07h-2.32,0ZM89.7,13.63c-.8,0-1.49.04-2.46.07-.23,0-.28-.09-.29-.29-.05-.41-.07-1.04-.12-1.67,1.22.07,2.1.09,2.87.09h3.19c.97,0,2.06-.01,2.93-.07.18,0,.21.1.21.33.04.41.04.85,0,1.27,0,.24-.04.33-.23.33-.94-.04-1.96-.05-2.91-.05h-3.19ZM97.15,10.62c.09-.05.15-.04.24.05.5.47,1.05,1.23,1.47,2.01.05.1.05.19-.09.28l-.78.47c-.12.07-.21.04-.28-.09-.45-.85-.94-1.56-1.56-2.17l.99-.55h0ZM98.8,9.65c.1-.07.15-.04.24.05.59.55,1.14,1.3,1.47,1.94.05.1.07.21-.09.31l-.73.47c-.15.09-.24.01-.29-.09-.4-.78-.88-1.49-1.54-2.15l.94-.54h0Z"/>
      <path class="cls-3" d="M114.32,15.09c.85,0,1.82-.01,2.62-.05.21-.01.23.09.24.28.04.43.04.94,0,1.37-.01.23-.05.29-.29.28-.59,0-1.64-.01-2.5-.01h-.71c-.1,2.48-.49,3.94-1.33,5.34-.87,1.44-2.27,2.48-4.09,3.23-.24.1-.38.15-.49.15s-.19-.05-.33-.19c-.52-.54-.85-.78-1.44-1.04,2.46-.76,3.8-1.64,4.68-3.07.68-1.11.95-2.31,1.02-4.42h-3.69v.63c0,1.02,0,1.96.05,2.88.01.19-.1.23-.29.24-.45.04-1.02.04-1.49,0-.23-.01-.33-.05-.31-.24.05-.9.09-1.75.09-2.84v-.66h-.52c-.94,0-2.32.05-2.86.09-.14,0-.19-.1-.21-.33-.07-.36-.09-.97-.12-1.68.73.05,1.86.09,3.19.09h.52v-1.27c0-1.11-.04-1.54-.21-2.55.9.09,1.75.18,2.12.28.19.04.26.12.26.24,0,.1-.05.23-.1.36-.12.31-.12.49-.12,1.67v1.27h3.73v-1.7c.03-.97-.02-1.77-.14-2.37.66.07,1.61.18,2.03.29.24.05.31.14.31.28,0,.07-.01.18-.07.31-.13.33-.14.78-.14,1.53v1.65h.6v-.03ZM115.19,10.9c.09-.04.15-.04.24.07.47.5.97,1.28,1.33,2.1.05.12.04.19-.1.26l-.71.36c-.14.07-.23.04-.29-.1-.38-.87-.82-1.59-1.41-2.26l.94-.43h0ZM116.82,10.16c.1-.05.15-.04.24.07.55.59,1.05,1.37,1.33,2.03.05.1.05.23-.1.29l-.69.35c-.15.07-.23.01-.28-.09-.35-.82-.8-1.56-1.4-2.26l.9-.4h0Z"/>
      <path class="cls-3" d="M128.01,21.42c0,1.19.01,2.22.05,3.6.01.23-.07.29-.26.29-.55.04-1.18.04-1.73,0-.19,0-.26-.07-.24-.28.01-1.25.07-2.37.07-3.55v-4.04c-1.53,1.28-3.38,2.6-4.77,3.33-.09.05-.18.07-.26.07-.14,0-.24-.05-.36-.18-.4-.4-.97-.74-1.49-1.02,2.4-1.23,3.87-2.23,5.46-3.55,1.37-1.13,2.62-2.34,3.69-3.63.59-.69.82-1.04,1.09-1.78.78.43,1.54.9,1.92,1.22.1.07.14.18.14.26,0,.14-.1.29-.24.38-.29.19-.57.45-1.04.95-.68.82-1.32,1.49-2.03,2.18v5.74h0Z"/>
      <path class="cls-3" d="M135.12,12.51c.07-.09.15-.14.24-.14.07,0,.14.04.23.09.88.47,2.32,1.53,3.31,2.46.1.1.15.18.15.24s-.04.14-.1.23c-.26.35-.83,1.04-1.08,1.3-.09.09-.14.14-.21.14s-.14-.05-.23-.14c-1.04-1.08-2.28-2.06-3.54-2.82.38-.47.88-1,1.22-1.35h0ZM136.63,21.65c2.12-1.09,3.24-1.82,5-3.23,2.12-1.72,3.28-2.82,4.75-4.72.1.87.26,1.46.49,2.03.05.12.09.23.09.33,0,.15-.09.29-.28.52-.92,1.08-2.41,2.46-3.99,3.68-1.44,1.13-2.9,2.1-5.23,3.4-.78.47-1,.64-1.16.8-.1.1-.21.18-.31.18-.09,0-.19-.07-.29-.19-.43-.49-.97-1.19-1.39-1.92.88-.24,1.42-.4,2.34-.87h-.01Z"/>
      <path class="cls-3" d="M152.49,21.44c-1.54,0-2.06.04-2.17.04-.18,0-.19-.01-.19-.19v-1.33c0-.18.01-.19.19-.19.1,0,.63.04,2.17.04h4.56c-.01-.55-.04-1-.1-1.47l1,.1c.59-.38,1.05-.77,1.58-1.25h-3.74c-1.59,0-2.15.04-2.23.04-.18,0-.19-.01-.19-.18v-1.22c0-.18.01-.19.19-.19.09,0,.64.04,2.23.04h4.7c.24,0,.35,0,.41-.04.09-.04.14-.07.23-.07.14,0,.31.14.74.55.35.36.49.59.49.74,0,.14-.07.23-.21.28-.18.09-.41.23-.83.57-.71.6-1.49,1.22-2.42,1.81v.28h4.33c1.54,0,2.06-.04,2.17-.04.18,0,.19.01.19.19v1.33c0,.18-.01.19-.19.19-.1,0-.63-.04-2.17-.04h-4.33v1.13c0,.41.04,1.05.04,1.51,0,.74-.14,1.13-.55,1.42-.45.28-.99.38-2.65.38-.54,0-.54.01-.68-.5-.12-.45-.31-.92-.52-1.27.69.07,1.18.1,1.86.1.49,0,.68-.12.68-.6v-2.17h-4.57ZM153.57,10.34c.23-.09.28-.05.38.09.43.55.9,1.3,1.16,1.81.09.18.09.19-.15.28l-1.14.41h3.6c-.26-.77-.68-1.63-.99-2.17-.1-.18-.05-.19.15-.26l1.14-.35c.21-.07.26-.04.35.1.29.49.73,1.39.95,2.01.05.15.05.18-.19.26l-1.13.4h2.67c.33-.55.57-1.09.85-1.75.09-.23.18-.5.26-.92.63.12,1.23.31,1.72.52.15.07.24.15.24.26s-.07.19-.18.26-.24.24-.33.4c-.24.45-.45.82-.71,1.23h.45c1.61,0,2.18-.04,2.28-.04.19,0,.21.01.21.19,0,.1-.04.43-.04.94v.8c0,1.56.04,1.84.04,1.94,0,.19-.01.21-.21.21h-1.37c-.18,0-.19-.01-.19-.21v-2.29h-11.1v2.29c0,.18-.01.19-.19.19h-1.37c-.19,0-.21-.01-.21-.19,0-.12.04-.4.04-1.96v-.64c0-.64-.04-.95-.04-1.08,0-.18.01-.19.21-.19.1,0,.68.04,2.28.04h.47c-.29-.71-.76-1.47-1.11-1.94-.1-.15-.09-.19.12-.26l1.04-.38h.03Z"/>
      <path class="cls-3" d="M171.41,12.96c-.47.1-.94.19-1.42.28-.54.09-.55.09-.78-.43-.15-.36-.35-.66-.59-.94,1.86-.23,3.68-.66,4.77-1.14.29-.14.47-.24.71-.41.43.36.76.69,1.09,1.08.1.12.15.19.15.31s-.14.21-.31.21c-.19,0-.36.07-.59.15-.41.18-.87.33-1.33.47v2.4h.15c1.36,0,1.81-.04,1.91-.04.18,0,.19.01.19.19v1.23c0,.18-.01.19-.19.19-.1,0-.55-.04-1.87-.04.59,1.08,1.42,1.98,2.22,2.67-.21.31-.49.87-.64,1.33-.05.19-.12.28-.19.28-.09,0-.18-.09-.29-.26-.5-.66-.97-1.39-1.33-2.17,0,4.25.1,7.16.1,7.54,0,.15-.01.18-.19.18h-1.42c-.18,0-.19-.01-.19-.18,0-.36.1-3.29.14-7.18-.5,1.58-1.19,2.77-2.03,3.92-.12.18-.23.28-.31.28-.07,0-.14-.09-.21-.29-.15-.45-.47-1.05-.71-1.32,1.19-1.28,2.2-2.74,2.87-4.81h-.43c-1.36,0-1.81.04-1.91.04-.18,0-.19-.01-.19-.19v-1.23c0-.18.01-.19.19-.19.1,0,.55.04,1.91.04h.73v-1.96h0ZM180.4,19.86v-6.97c0-1.23-.04-1.77-.14-2.62.64.01,1.23.05,1.82.12.19.01.28.09.28.18,0,.12-.04.24-.09.36-.07.19-.1.64-.1,1.92v6.64c1.05-.23,1.49-.35,1.64-.38s.15,0,.19.18l.23,1.35c.04.15,0,.18-.18.21-.15.04-.64.1-1.89.35v1.61c0,1.94.04,2.91.04,3.01,0,.18-.01.19-.19.19h-1.47c-.15,0-.18-.01-.18-.19,0-.1.04-1.05.04-3v-1.27l-2.79.54-2.22.45c-.15.04-.18,0-.21-.18l-.24-1.32c-.04-.18-.01-.19.15-.23.18-.04.71-.1,2.22-.36l3.09-.6h0ZM176.58,15.43c.15-.15.19-.14.33-.04.8.59,1.72,1.44,2.45,2.27.12.14.1.21-.05.36l-.85.88c-.09.09-.15.12-.19.12-.05,0-.09-.01-.15-.09-.71-.9-1.54-1.75-2.4-2.41-.14-.12-.14-.15.04-.33l.83-.78h0ZM177.08,11.47c.14-.14.18-.15.31-.05.87.63,1.73,1.41,2.41,2.17.05.07.09.1.09.15s-.04.1-.12.18l-.85.87c-.18.19-.19.21-.31.05-.73-.9-1.61-1.7-2.4-2.27-.15-.12-.14-.15.04-.33l.83-.76h0Z"/>
    </g>
    <g>
      <path class="cls-3" d="M49.48.83c0-.24,0-.46-.04-.63.25,0,.46.02.64.04.08.01.11.03.11.08,0,.03-.01.05-.04.11-.03.05-.04.18-.04.41h1.21c0-.24,0-.46-.04-.64.25,0,.45.03.65.04.05,0,.1.03.1.08,0,.03-.01.05-.04.1s-.04.18-.04.4v.03h.78c.58,0,.78-.01.82-.01.07,0,.07,0,.07.07v.49c0,.07,0,.08-.07.08-.04,0-.24-.01-.82-.01h-.78c0,.27.01.41.01.44,0,.07,0,.07-.07.07h-.52c-.07,0-.07,0-.07-.07,0-.04,0-.17.01-.44h-1.21c0,.27.01.41.01.44,0,.07,0,.08-.07.08h-.52c-.07,0-.07,0-.07-.08,0-.03,0-.17.01-.44h-.74c-.57,0-.78.01-.82.01-.07,0-.07,0-.07-.08v-.49c0-.07,0-.07.07-.07.04,0,.24.01.82.01h.74ZM48.78,4.08c-.57,0-.78.01-.82.01-.07,0-.07,0-.07-.07v-.52c0-.06,0-.07.07-.07.04,0,.24.01.82.01h3.94c.57,0,.78-.01.82-.01.07,0,.07,0,.07.07v.52c0,.07,0,.07-.07.07-.04,0-.24-.01-.82-.01h-2.34c-.15.36-.3.72-.48,1.06.7-.04,1.42-.1,2-.16-.13-.14-.24-.29-.38-.42-.04-.05-.04-.07.03-.12l.35-.2c.07-.04.1-.04.15,0,.44.43.88.96,1.22,1.44.03.05.04.07-.04.13l-.41.26s-.07.04-.08.04-.03-.02-.05-.05c-.12-.19-.24-.38-.38-.57-1.06.16-2.38.3-3.59.38-.14.01-.19.03-.24.05-.04.02-.09.05-.13.05-.05,0-.08-.04-.1-.1-.06-.21-.1-.46-.13-.68h.69c.1,0,.21,0,.31-.01.2-.36.38-.74.52-1.11h-.85,0ZM49.48,2.87c-.63,0-.85.01-.89.01-.07,0-.08,0-.08-.07v-.5c0-.07,0-.07.08-.07.04,0,.26.01.89.01h2.5c.63,0,.85-.01.89-.01.07,0,.08,0,.08.07v.5c0,.06,0,.07-.08.07-.04,0-.26-.01-.89-.01h-2.5Z"/>
      <path class="cls-3" d="M57.24,1.04c0-.38,0-.62-.05-.85.24,0,.46.01.67.04.06,0,.1.04.1.07,0,.05-.02.08-.04.14-.03.08-.03.18-.03.6v.47h.1c.5,0,.65-.01.69-.01.07,0,.08,0,.08.07v.41s.03-.01.07-.01.15.01.55.01h.62c.41,0,.52-.01.55-.01.07,0,.07,0,.07.07v.49c0,.07,0,.08-.07.08-.04,0-.14-.01-.49-.01v1.36c0,.69.01,1.01.01,1.28,0,.29-.04.52-.21.63-.14.11-.36.13-.85.13-.13,0-.21-.07-.24-.21-.03-.16-.07-.33-.13-.46.21.03.38.04.55.04.19,0,.24-.05.24-.25v-2.52h-.04c-.4,0-.52.01-.55.01-.07,0-.08,0-.08-.08v-.41h-.07s-.19-.01-.69-.01h-.1v3.87c0,.07,0,.07-.07.07h-.53c-.06,0-.07,0-.07-.07,0-.04.01-.41.01-1.16v-2.71h-.1c-.5,0-.66.01-.69.01-.07,0-.07,0-.07-.07-.01.02-.03.03-.07.05-.06.03-.11.11-.18.22-.08.15-.18.3-.29.45v2.42c0,.52.01.77.01.8,0,.07,0,.07-.07.07h-.52c-.07,0-.07,0-.07-.07,0-.04.01-.28.01-.8v-.96c0-.21,0-.49.01-.74-.1.1-.21.21-.32.3-.05.04-.09.07-.12.07s-.05-.04-.07-.13c-.04-.19-.1-.35-.19-.49.49-.41.84-.84,1.12-1.35.05-.1.11-.22.15-.35.18.1.33.2.48.31.04.03.07.06.08.09v-.41c0-.07,0-.07.07-.07.04,0,.19.01.69.01h.1v-.47h0ZM56.31.43c.06.04.09.08.09.13,0,.04-.03.07-.07.08-.07.03-.13.1-.19.19-.28.38-.63.73-1.1,1.1-.07.04-.11.08-.15.08s-.07-.04-.1-.15c-.06-.18-.15-.35-.25-.45.44-.28.8-.63,1.06-.98.09-.12.14-.21.18-.3.19.09.38.19.53.3h0ZM56.4,3.26c.01-.14.02-.32,0-.49.2.02.39.04.57.08.08.01.11.05.11.1,0,.03-.02.07-.04.1-.03.04-.04.11-.06.24-.05.55-.15,1.2-.34,1.7-.03.08-.04.13-.09.13-.03,0-.07-.02-.13-.04-.14-.07-.27-.1-.41-.13.23-.63.34-1.12.39-1.67ZM58.3.39c.07-.04.08-.04.13,0,.15.19.26.35.4.6.03.06.02.08-.04.13l-.27.18s-.06.04-.08.04-.03-.02-.05-.05c-.12-.24-.24-.44-.38-.62-.04-.04-.04-.07.03-.12l.27-.16h0ZM58.47,2.73c.07-.03.08-.02.1.04.18.56.29,1.1.37,1.73,0,.07,0,.08-.08.11l-.37.13c-.09.03-.11.03-.12-.03-.07-.68-.17-1.23-.33-1.78-.02-.07,0-.08.07-.11,0,0,.35-.1.35-.1ZM59.93.57c.36,0,.46-.01.51-.01.06,0,.07,0,.07.07v.49c0,.07,0,.07-.07.07-.04,0-.14-.01-.51-.01h-.43c-.36,0-.46.01-.51.01-.07,0-.07,0-.07-.07v-.49c0-.07,0-.07.07-.07.04,0,.14.01.51.01,0,0,.43,0,.43,0Z"/>
      <path class="cls-3" d="M62.65,4.37c-.57,0-.77.01-.81.01-.07,0-.07,0-.07-.07v-.5c0-.07,0-.07.07-.07.04,0,.24.01.81.01h1.71c0-.21-.01-.38-.04-.55l.38.04c.22-.14.4-.29.59-.46h-1.4c-.6,0-.8.01-.84.01-.07,0-.07,0-.07-.07v-.46c0-.07,0-.07.07-.07.03,0,.24.01.84.01h1.76c.09,0,.13,0,.15-.01.03-.01.05-.03.08-.03.05,0,.12.05.28.21.13.14.18.22.18.28,0,.05-.03.08-.08.1-.07.03-.15.08-.31.21-.27.23-.56.46-.91.68v.1h1.62c.57,0,.77-.01.81-.01.07,0,.07,0,.07.07v.5c0,.07,0,.07-.07.07-.04,0-.24-.01-.81-.01h-1.62v.42c0,.15.01.4.01.57,0,.28-.05.42-.21.53-.17.1-.37.14-.99.14q-.2,0-.25-.19c-.04-.17-.12-.35-.19-.47.26.03.44.04.69.04.18,0,.25-.04.25-.23v-.81h-1.72ZM63.05.22c.08-.03.1-.02.14.03.16.21.34.49.43.68.03.07.03.07-.06.1l-.43.15h1.35c-.1-.29-.25-.61-.37-.81-.04-.07-.02-.07.06-.1l.43-.13c.08-.03.1-.01.13.04.11.18.27.52.35.75.02.06.02.07-.07.1l-.42.15h1c.13-.21.21-.41.32-.66.03-.08.07-.19.1-.35.24.04.46.12.64.19.06.02.09.06.09.1s-.03.07-.07.1c-.04.02-.09.09-.13.15-.09.17-.17.3-.27.46h.17c.6,0,.82-.01.85-.01.07,0,.08,0,.08.07,0,.04-.01.16-.01.35v.3c0,.58.01.69.01.73,0,.07,0,.08-.08.08h-.52c-.07,0-.07,0-.07-.08v-.85h-4.16v.85c0,.07,0,.07-.07.07h-.52c-.07,0-.08,0-.08-.07,0-.04.01-.15.01-.74v-.24c0-.24-.01-.35-.01-.41,0-.07,0-.07.08-.07.04,0,.25.01.85.01h.18c-.11-.27-.29-.55-.41-.73-.04-.06-.03-.07.04-.1l.39-.14h.02Z"/>
      <path class="cls-3" d="M69.53,3.12c-.59,0-.8.01-.83.01-.06,0-.07,0-.07-.07v-.46c0-.07,0-.07.07-.07.04,0,.24.01.83.01h.94c.12-.3.18-.52.24-.74.03-.1.04-.19.05-.32.18.03.4.08.57.13.06.02.1.04.1.08s-.03.08-.05.1c-.04.04-.07.1-.08.15-.06.19-.13.37-.22.6.51,0,.69-.01.74-.01.07,0,.07,0,.07.07v.46c0,.07,0,.07-.07.07-.04,0-.24-.01-.83-.01h-1.46ZM69.64,1.37c-.57,0-.76.01-.8.01-.07,0-.07,0-.07-.07v-.46c0-.07,0-.08.07-.08.04,0,.23.01.8.01h.29v-.12c0-.24,0-.39-.04-.54.24,0,.43.03.66.04.07,0,.1.03.1.06,0,.04-.02.08-.04.13-.02.04-.03.13-.03.31v.11h.33c.57,0,.75-.01.79-.01.07,0,.07,0,.07.08v.46c0,.07,0,.07-.07.07-.04,0-.23-.01-.79-.01,0,0-1.28,0-1.28,0ZM69.09,6.01c-.07,0-.07,0-.07-.07,0-.04.01-.21.01-1.1v-.46c0-.51-.01-.68-.01-.73,0-.07,0-.07.07-.07.04,0,.21.01.72.01h.94c.51,0,.68-.01.72-.01.07,0,.08,0,.08.07,0,.04-.01.22-.01.63v.54c0,.89.01,1.05.01,1.09,0,.07,0,.08-.08.08h-.5c-.07,0-.07,0-.07-.08v-.3h-1.23v.32c0,.06,0,.07-.07.07h-.5ZM69.51,2.45c-.1.02-.1.01-.12-.07-.04-.24-.1-.5-.18-.71-.03-.07-.01-.07.07-.1l.35-.1c.08-.02.1-.01.13.05.08.2.16.46.21.71.01.07,0,.07-.08.1l-.38.11h0ZM69.66,5.06h1.23v-.89h-1.23v.89ZM73.78.44c.08,0,.14,0,.16-.02.04-.01.07-.02.1-.02.05,0,.1.03.27.19.13.15.15.21.15.27s-.03.08-.06.12c-.04.03-.08.09-.14.24-.19.5-.37.94-.59,1.41.66.6.79.99.79,1.52,0,.68-.38,1.03-1.14,1.11-.13.01-.21-.05-.24-.19-.03-.19-.1-.33-.18-.43.61.01.9-.15.9-.53,0-.41-.15-.73-.84-1.36.27-.55.47-1.09.67-1.7h-.91v3.63c0,.87.01,1.33.01,1.36,0,.07,0,.07-.07.07h-.52c-.07,0-.08,0-.08-.07,0-.04.01-.46.01-1.35V1.86c0-.89-.01-1.33-.01-1.37,0-.07,0-.07.08-.07.04,0,.21.01.57.01h1.06Z"/>
    </g>
    <g>
      <path class="cls-3" d="M47.85,34.75v-4.11h1.32c1.25,0,2.06.85,2.06,2.06,0,.71-.29,1.29-.83,1.67-.43.32-.86.36-1.4.36h-1.16,0ZM49.15,34.2c.92,0,1.48-.57,1.48-1.48s-.57-1.51-1.59-1.51h-.61v2.99s.72,0,.72,0Z"/>
      <path class="cls-3" d="M53.54,34.28c.37,0,.69-.18.86-.51h.63c-.29.69-.82,1.06-1.5,1.06-.46,0-.84-.16-1.14-.49-.29-.3-.46-.73-.46-1.15,0-.44.15-.82.43-1.13.31-.34.7-.51,1.15-.51.55,0,1.03.26,1.34.72.18.28.27.61.27,1.04v.09h-2.61c.1.52.51.87,1.02.87h.01ZM53.55,32.1c-.49,0-.87.3-1,.8h1.98c-.14-.51-.49-.8-.97-.8h0Z"/>
      <path class="cls-3" d="M56.51,35.75h-.56v-4.11h.57v.38c.29-.3.65-.45,1.04-.45.94,0,1.63.71,1.63,1.64,0,.43-.16.83-.45,1.13-.31.33-.68.48-1.14.48-.42,0-.78-.15-1.08-.46v1.38h0ZM57.55,34.29c.57,0,1.06-.46,1.06-1.07,0-.65-.49-1.11-1.07-1.11-.55,0-1.04.49-1.04,1.07,0,.63.49,1.11,1.05,1.11Z"/>
      <path class="cls-3" d="M62.53,34.37c-.29.3-.65.45-1.04.45-.94,0-1.62-.71-1.62-1.64,0-.43.15-.83.44-1.13.31-.33.68-.48,1.14-.48.42,0,.78.15,1.08.46v-.38h.57v3.1h-.57v-.38h0ZM61.52,34.29c.55,0,1.04-.49,1.04-1.07,0-.63-.49-1.11-1.05-1.11s-1.06.46-1.06,1.07c0,.65.49,1.11,1.08,1.11Z"/>
      <path class="cls-3" d="M64.1,34.75v-3.1h.52v.36c.18-.28.41-.41.73-.41v.58c-.52.04-.7.3-.7.84v1.72h-.56,0Z"/>
      <path class="cls-3" d="M66.37,32.16h-.43v-.51h.43v-1h.55v1h.44v.51h-.44v2.59h-.55v-2.59Z"/>
      <path class="cls-3" d="M69.33,32.1c-.49,0-.7.35-.7,1.05v1.58h-.53v-3.1h.49v.36c.21-.28.46-.41.8-.41.44,0,.74.16.94.54.19-.36.5-.54.96-.54.68,0,1.16.47,1.16,1.26v1.89h-.56v-1.81c0-.54-.25-.83-.66-.83-.52,0-.68.33-.68,1.02v1.62h-.55v-1.56c0-.71-.18-1.08-.67-1.08h0Z"/>
      <path class="cls-3" d="M74.87,34.28c.37,0,.69-.18.86-.51h.63c-.29.69-.82,1.06-1.5,1.06-.46,0-.84-.16-1.14-.49-.29-.3-.46-.73-.46-1.15,0-.44.15-.82.43-1.13.31-.34.7-.51,1.15-.51.55,0,1.03.26,1.34.72.18.28.27.61.27,1.04v.09h-2.61c.1.52.51.87,1.02.87h.01ZM74.87,32.1c-.49,0-.87.3-1,.8h1.98c-.14-.51-.49-.8-.97-.8h0Z"/>
      <path class="cls-3" d="M77.29,34.75v-3.1h.54v.35c.24-.28.51-.41.86-.41.8,0,1.26.49,1.26,1.39v1.77h-.56v-1.64c0-.65-.24-.97-.75-.97-.6,0-.79.41-.79,1.21v1.41h-.56Z"/>
      <path class="cls-3" d="M81.06,32.16h-.43v-.51h.43v-1h.55v1h.44v.51h-.44v2.59h-.55v-2.59Z"/>
      <path class="cls-3" d="M84.95,32.07c.31-.33.71-.52,1.13-.52.45,0,.84.16,1.15.48.3.31.47.71.47,1.13s-.16.85-.43,1.15c-.31.34-.71.52-1.16.52s-.83-.16-1.14-.49c-.29-.3-.46-.73-.46-1.15s.15-.83.44-1.13ZM86.11,34.28c.57,0,1.02-.46,1.02-1.09s-.45-1.08-1.02-1.08-1.02.45-1.02,1.09.44,1.08,1.02,1.08h0Z"/>
      <path class="cls-3" d="M88.62,34.75v-2.62h-.37v-.49h.35v-.1c0-.63.35-.96,1.05-.96v.52h-.04c-.33,0-.46.14-.46.49v.04h.51v.49h-.49v2.62h-.55Z"/>
      <path class="cls-3" d="M94.22,34.83c-.61,0-1.13-.24-1.56-.71-.35-.38-.53-.89-.53-1.45s.22-1.09.64-1.51c.39-.38.88-.6,1.45-.6.84,0,1.5.41,1.83,1.14h-.7c-.27-.36-.65-.55-1.13-.55-.39,0-.74.15-1.02.43-.29.29-.45.7-.45,1.09,0,.43.15.83.41,1.1.28.29.67.46,1.05.46.47,0,.86-.18,1.11-.52h.73c-.35.71-1,1.11-1.84,1.11h0Z"/>
      <path class="cls-3" d="M97.19,32.07c.31-.33.71-.52,1.13-.52.45,0,.84.16,1.15.48.3.31.47.71.47,1.13s-.16.85-.43,1.15c-.31.34-.71.52-1.16.52s-.83-.16-1.14-.49c-.29-.3-.46-.73-.46-1.15s.15-.83.44-1.13h0ZM98.35,34.28c.57,0,1.02-.46,1.02-1.09s-.45-1.08-1.02-1.08-1.02.45-1.02,1.09.44,1.08,1.02,1.08h0Z"/>
      <path class="cls-3" d="M100.79,30.64h.55v4.11h-.55v-4.11Z"/>
      <path class="cls-3" d="M102.35,30.64h.55v4.11h-.55v-4.11Z"/>
      <path class="cls-3" d="M106.41,34.37c-.29.3-.65.45-1.04.45-.94,0-1.62-.71-1.62-1.64,0-.43.15-.83.44-1.13.31-.33.68-.48,1.14-.48.42,0,.78.15,1.08.46v-.38h.57v3.1h-.57v-.38h0ZM105.4,34.29c.55,0,1.04-.49,1.04-1.07,0-.63-.49-1.11-1.05-1.11s-1.06.46-1.06,1.07c0,.65.49,1.11,1.08,1.11h0Z"/>
      <path class="cls-3" d="M108.54,34.75h-.57v-4.11h.56v1.38c.3-.3.66-.46,1.08-.46.46,0,.83.15,1.14.48.29.3.45.71.45,1.13,0,.93-.69,1.64-1.63,1.64-.39,0-.75-.15-1.04-.45v.38h0ZM109.55,34.29c.58,0,1.07-.46,1.07-1.11,0-.6-.49-1.07-1.06-1.07s-1.05.48-1.05,1.11c0,.57.49,1.07,1.04,1.07Z"/>
      <path class="cls-3" d="M112.31,32.07c.31-.33.71-.52,1.13-.52.45,0,.84.16,1.15.48.3.31.47.71.47,1.13s-.16.85-.43,1.15c-.31.34-.71.52-1.16.52s-.83-.16-1.14-.49c-.29-.3-.46-.73-.46-1.15s.15-.83.44-1.13h0ZM113.48,34.28c.57,0,1.02-.46,1.02-1.09s-.45-1.08-1.02-1.08-1.02.45-1.02,1.09.44,1.08,1.02,1.08h0Z"/>
      <path class="cls-3" d="M115.9,34.75v-3.1h.52v.36c.18-.28.41-.41.73-.41v.58c-.52.04-.7.3-.7.84v1.72h-.56,0Z"/>
      <path class="cls-3" d="M120.32,34.37c-.29.3-.65.45-1.04.45-.94,0-1.62-.71-1.62-1.64,0-.43.15-.83.44-1.13.31-.33.68-.48,1.14-.48.42,0,.78.15,1.08.46v-.38h.57v3.1h-.57v-.38h0ZM119.31,34.29c.55,0,1.04-.49,1.04-1.07,0-.63-.49-1.11-1.05-1.11s-1.06.46-1.06,1.07c0,.65.49,1.11,1.08,1.11h0Z"/>
      <path class="cls-3" d="M122.06,32.16h-.43v-.51h.43v-1h.55v1h.44v.51h-.44v2.59h-.55v-2.59Z"/>
      <path class="cls-3" d="M123.79,31.29v-.64h.55v.64h-.55ZM123.79,31.65h.55v3.1h-.55v-3.1Z"/>
      <path class="cls-3" d="M126.19,34.75l-1.18-3.1h.6l.81,2.26.84-2.26h.59l-1.24,3.1h-.42Z"/>
      <path class="cls-3" d="M129.83,34.28c.37,0,.69-.18.86-.51h.63c-.29.69-.82,1.06-1.5,1.06-.46,0-.84-.16-1.14-.49-.29-.3-.46-.73-.46-1.15,0-.44.15-.82.43-1.13.31-.34.7-.51,1.15-.51.55,0,1.03.26,1.34.72.18.28.27.61.27,1.04v.09h-2.61c.1.52.51.87,1.02.87h.01ZM129.83,32.1c-.49,0-.87.3-1,.8h1.98c-.14-.51-.49-.8-.97-.8h0Z"/>
      <path class="cls-3" d="M134.14,34.75v-4.11h1.32c1.25,0,2.06.85,2.06,2.06,0,.71-.29,1.29-.83,1.67-.43.32-.86.36-1.4.36h-1.16,0ZM135.43,34.2c.92,0,1.48-.57,1.48-1.48s-.57-1.51-1.59-1.51h-.61v2.99h.72Z"/>
      <path class="cls-3" d="M139.83,34.28c.37,0,.69-.18.86-.51h.63c-.29.69-.82,1.06-1.5,1.06-.46,0-.84-.16-1.14-.49-.29-.3-.46-.73-.46-1.15,0-.44.15-.82.43-1.13.31-.34.7-.51,1.15-.51.55,0,1.03.26,1.34.72.18.28.27.61.27,1.04v.09h-2.61c.1.52.51.87,1.02.87h.01ZM139.83,32.1c-.49,0-.87.3-1,.8h1.98c-.14-.51-.49-.8-.97-.8h0Z"/>
      <path class="cls-3" d="M142.55,33.75c0,.34.21.57.48.57s.44-.18.44-.43c0-.23-.12-.36-.38-.46-.28-.11-.49-.18-.61-.27-.22-.18-.32-.39-.32-.69,0-.5.4-.91.91-.91s.86.32.89.88h-.54c-.01-.23-.15-.36-.38-.36-.2,0-.35.15-.35.36,0,.32.25.34.65.5.46.19.66.45.66.93,0,.56-.42.97-.99.97s-.95-.41-.99-1.08h.54Z"/>
      <path class="cls-3" d="M144.87,31.29v-.64h.55v.64h-.55ZM144.87,31.65h.55v3.1h-.55v-3.1Z"/>
      <path class="cls-3" d="M147.06,35c.18.29.46.44.82.44.62,0,1.05-.4,1.05-1.03v-.04c-.29.3-.65.45-1.04.45-.94,0-1.62-.71-1.62-1.64,0-.43.15-.83.44-1.13.31-.33.68-.48,1.14-.48.42,0,.78.15,1.08.46v-.38h.56v2.59c0,1.1-.61,1.72-1.58,1.72-.71,0-1.24-.35-1.45-.97h.6ZM147.92,34.29c.55,0,1.04-.49,1.04-1.07,0-.63-.49-1.11-1.05-1.11s-1.06.46-1.06,1.07c0,.65.49,1.11,1.08,1.11h0Z"/>
      <path class="cls-3" d="M150.5,34.75v-3.1h.54v.35c.24-.28.51-.41.86-.41.8,0,1.26.49,1.26,1.39v1.77h-.56v-1.64c0-.65-.24-.97-.75-.97-.6,0-.79.41-.79,1.21v1.41h-.56Z"/>
    </g>
  </g>
</svg>